<svg id="Layer_1" data-name="Layer 1" xmlns="http://www.w3.org/2000/svg" viewBox="0 0 219.7 185.64"><defs><style>.cls-1{fill:#ed1c24;}.cls-2{fill:#231f20;}</style></defs><path class="cls-1" d="M883.34,534.9h37.47v9.29H883.34Zm13.92,4.19h9.63V586h-9.63Z" transform="translate(-883.34 -534.38)"/><path class="cls-1" d="M925,534.9h9.64V586H925Zm4.4,22h16.35a5.79,5.79,0,0,0,3-.79,5.4,5.4,0,0,0,2-2.23,7,7,0,0,0,.74-3.31,7.47,7.47,0,0,0-.72-3.35,5.19,5.19,0,0,0-2-2.25,5.82,5.82,0,0,0-3.07-.79H929.43V534.9h16.1a17.45,17.45,0,0,1,8.42,2,13.77,13.77,0,0,1,5.64,5.5,17.79,17.79,0,0,1,0,16.43,13.7,13.7,0,0,1-5.64,5.47,17.67,17.67,0,0,1-8.42,1.93h-16.1Z" transform="translate(-883.34 -534.38)"/><path class="cls-2" d="M1005.51,557.44v10a21,21,0,0,1-2.31,10,16.3,16.3,0,0,1-6.52,6.72,19.61,19.61,0,0,1-9.77,2.37,21,21,0,0,1-9.86-2.23,16,16,0,0,1-6.61-6.31,18.7,18.7,0,0,1-2.34-9.46V553.47a21,21,0,0,1,2.3-10,16.32,16.32,0,0,1,6.52-6.7,19.64,19.64,0,0,1,9.78-2.37,19,19,0,0,1,8.44,1.88,17.68,17.68,0,0,1,6.45,5.32,19.61,19.61,0,0,1,3.49,8h-10.4a6.79,6.79,0,0,0-1.74-2.79,8.11,8.11,0,0,0-2.85-1.79,9.56,9.56,0,0,0-3.39-.62,8.89,8.89,0,0,0-4.52,1.13,7.59,7.59,0,0,0-3,3.2,10.18,10.18,0,0,0-1.08,4.78v15.08a8.16,8.16,0,0,0,1.09,4.22,7.23,7.23,0,0,0,3.1,2.81,10.32,10.32,0,0,0,4.64,1,9.25,9.25,0,0,0,4.55-1.07,7.29,7.29,0,0,0,3-3.11,10.38,10.38,0,0,0,1-4.82v-.84h-7.73v-9.28Z" transform="translate(-883.34 -534.38)"/><path class="cls-2" d="M1015.7,534.9h9.63V586h-9.63Zm4.85,41.84h12.27q4.76,0,7.35-2.28a8.18,8.18,0,0,0,2.6-6.47v-15a8.16,8.16,0,0,0-2.6-6.47q-2.6-2.28-7.35-2.28h-12.27V534.9h12.06a25.28,25.28,0,0,1,10.92,2.15,15.16,15.16,0,0,1,6.87,6.26,19.62,19.62,0,0,1,2.36,9.91v14.49a19.67,19.67,0,0,1-2.27,9.63,15.52,15.52,0,0,1-6.8,6.4,24.58,24.58,0,0,1-11.11,2.28h-12Z" transform="translate(-883.34 -534.38)"/><path class="cls-2" d="M1063,534.9h9.63V586H1063Zm4.85,41.84h12.27q4.76,0,7.35-2.28A8.18,8.18,0,0,0,1090,568v-15a8.16,8.16,0,0,0-2.6-6.47q-2.6-2.28-7.35-2.28H1067.8V534.9h12.06a25.28,25.28,0,0,1,10.92,2.15,15.16,15.16,0,0,1,6.87,6.26,19.62,19.62,0,0,1,2.36,9.91v14.49a19.67,19.67,0,0,1-2.27,9.63,15.52,15.52,0,0,1-6.8,6.4,24.58,24.58,0,0,1-11.11,2.28h-12Z" transform="translate(-883.34 -534.38)"/><path class="cls-2" d="M899.28,672.21a30.49,30.49,0,0,1-6.57-2.16,24.94,24.94,0,0,1-5.5-3.43l4.46-7.94a21.77,21.77,0,0,0,6.82,3.74,24.46,24.46,0,0,0,8,1.32,14,14,0,0,0,7.31-1.6,5,5,0,0,0,2.6-4.52v0a4.48,4.48,0,0,0-1.16-3.24,6.89,6.89,0,0,0-3-1.76,38.92,38.92,0,0,0-4.78-1l-.2,0a.46.46,0,0,1-.19,0l-.77-.1a47.33,47.33,0,0,1-8.51-2,12.53,12.53,0,0,1-5.73-4.26q-2.36-3-2.36-8.63v0a15.57,15.57,0,0,1,2.22-8.48,14,14,0,0,1,6.43-5.36,25.37,25.37,0,0,1,10.2-1.84,26.06,26.06,0,0,1,5.6.63,30.14,30.14,0,0,1,5.61,1.83,31,31,0,0,1,5.2,2.88l-4.08,8.16a25.72,25.72,0,0,0-6.16-3.17,18.72,18.72,0,0,0-6.17-1.12,13.3,13.3,0,0,0-6.86,1.46,4.53,4.53,0,0,0-2.43,4.09v0a4.8,4.8,0,0,0,1.27,3.5,7.62,7.62,0,0,0,3.13,1.88,48.19,48.19,0,0,0,5.24,1.26,1.26,1.26,0,0,0,.28,0,2.8,2.8,0,0,1,.28.06,2.59,2.59,0,0,1,.4.09l.41.08a42.77,42.77,0,0,1,8.1,2.31,12.52,12.52,0,0,1,5.43,4.36c1.46,2,2.18,4.74,2.18,8.2v.07a14.93,14.93,0,0,1-2.28,8.37,14.36,14.36,0,0,1-6.66,5.31A27.26,27.26,0,0,1,906.44,673,34.72,34.72,0,0,1,899.28,672.21Z" transform="translate(-883.34 -534.38)"/><path class="cls-2" d="M944,672.42H934V621.3h10Z" transform="translate(-883.34 -534.38)"/><path class="cls-2" d="M990.88,643.84v10a21.15,21.15,0,0,1-2.3,10,16.37,16.37,0,0,1-6.52,6.72,19.64,19.64,0,0,1-9.78,2.37,21,21,0,0,1-9.86-2.23,16,16,0,0,1-6.61-6.31,18.69,18.69,0,0,1-2.33-9.46V639.87a20.93,20.93,0,0,1,2.3-10,16.25,16.25,0,0,1,6.52-6.7,19.61,19.61,0,0,1,9.77-2.37,19,19,0,0,1,8.44,1.88A17.52,17.52,0,0,1,987,628a19.62,19.62,0,0,1,3.5,8H980.05a6.79,6.79,0,0,0-1.74-2.79,8.07,8.07,0,0,0-2.84-1.79,9.61,9.61,0,0,0-3.4-.62,8.86,8.86,0,0,0-4.51,1.13,7.62,7.62,0,0,0-3,3.2,10.3,10.3,0,0,0-1.07,4.78V655a8.06,8.06,0,0,0,1.09,4.22,7.26,7.26,0,0,0,3.09,2.81,10.38,10.38,0,0,0,4.64,1,9.26,9.26,0,0,0,4.56-1.07,7.21,7.21,0,0,0,3-3.11A10.26,10.26,0,0,0,980.9,654v-.84h-7.74v-9.28Z" transform="translate(-883.34 -534.38)"/><rect class="cls-2" x="0.7" y="167.26" width="219" height="18.38" rx="9.19"/></svg>